<svg xmlns="http://www.w3.org/2000/svg" viewBox="0 0 64 64" role="img" aria-label="Veterinary Medical Center paw print icon">
  <rect width="64" height="64" rx="14" fill="#A91B1B"/>
  <ellipse cx="20" cy="22" rx="6.2" ry="7.4" fill="#F7F3EC" transform="rotate(-24 20 22)"/>
  <ellipse cx="31" cy="16.5" rx="6.1" ry="7.6" fill="#F7F3EC"/>
  <ellipse cx="42" cy="22" rx="6.2" ry="7.4" fill="#F7F3EC" transform="rotate(24 42 22)"/>
  <ellipse cx="50" cy="32" rx="5.4" ry="6.6" fill="#F7F3EC" transform="rotate(32 50 32)"/>
  <path
    d="M17.2 43.7c0-7.7 6.3-14.2 14.8-14.2s14.8 6.5 14.8 14.2c0 5.2-3.4 8.8-8.2 8.8-2.5 0-4.1-1.1-6.6-1.1s-4.1 1.1-6.6 1.1c-4.8 0-8.2-3.6-8.2-8.8Z"
    fill="#F7F3EC"
  />
</svg>
